HIERARCHY
ROOT Bone
{
	OFFSET 0.000000 0.000000 0.000000
	CHANNELS 6 Xposition Yposition Zposition Xrotation Yrotation Zrotation
	JOINT Bone.001
	{
		OFFSET 0.002685 0.000000 0.400000
		CHANNELS 3 Xrotation Yrotation Zrotation
		End Site
		{
			OFFSET -0.008054 0.000000 0.400000
		}
	}
}
MOTION
Frames: 47
Frame Time: 0.041667
0.000000 0.000000 0.000000 0.000000 -26.565051 0.000000 0.000000 11.113041 0.000000 
0.000000 0.000000 0.000000 0.000000 -26.161566 0.000000 0.000000 11.025731 0.000000 
0.000000 0.000000 0.000000 0.000000 -25.559965 0.000000 0.000000 10.541605 0.000000 
0.000000 0.000000 0.000000 0.000000 -25.177535 0.000000 0.000000 10.388858 0.000000 
0.000000 0.000000 0.000000 0.000000 -24.623565 0.000000 0.000000 10.166809 0.000000 
0.000000 0.000000 0.000000 0.000000 -24.266788 0.000000 0.000000 9.810033 0.000000 
0.000000 0.000000 0.000000 0.000000 -24.266788 0.000000 0.000000 9.810033 0.000000 
0.000000 0.000000 0.000000 0.000000 -23.962489 0.000000 0.000000 9.518453 0.000000 
0.000000 0.000000 0.000000 0.000000 -24.171444 0.000000 0.000000 9.727408 0.000000 
0.000000 0.000000 0.000000 0.000000 -24.171444 0.000000 0.000000 9.727408 0.000000 
0.000000 0.000000 0.000000 0.000000 -24.171444 0.000000 0.000000 9.427881 0.000000 
0.000000 0.000000 0.000000 0.000000 -24.044223 0.000000 0.000000 8.824758 0.000000 
0.000000 0.000000 0.000000 0.000000 -23.881276 0.000000 0.000000 8.661811 0.000000 
0.000000 0.000000 0.000000 0.000000 -23.720396 0.000000 0.000000 8.109407 0.000000 
0.000000 0.000000 0.000000 0.000000 -23.675603 0.000000 0.000000 7.448242 0.000000 
0.000000 0.000000 0.000000 0.000000 -23.720396 0.000000 0.000000 7.330855 0.000000 
0.000000 0.000000 0.000000 0.000000 -23.561545 0.000000 0.000000 6.667815 0.000000 
0.000000 0.000000 0.000000 0.000000 -24.004008 0.000000 0.000000 7.543993 0.000000 
0.000000 0.000000 0.000000 0.000000 -23.881276 0.000000 0.000000 6.987546 0.000000 
0.000000 0.000000 0.000000 0.000000 -23.514557 0.000000 0.000000 6.111853 0.000000 
0.000000 0.000000 0.000000 0.000000 -23.838740 0.000000 0.000000 6.583629 0.000000 
0.000000 0.000000 0.000000 0.000000 -23.794835 0.000000 0.000000 6.815125 0.000000 
0.000000 0.000000 0.000000 0.000000 -24.092020 0.000000 0.000000 7.146696 0.000000 
0.000000 0.000000 0.000000 0.000000 -24.092020 0.000000 0.000000 7.146696 0.000000 
0.000000 0.000000 0.000000 0.000000 -24.227745 0.000000 0.000000 7.318474 0.000000 
0.000000 0.000000 0.000000 0.000000 -24.370120 0.000000 0.000000 7.670876 0.000000 
0.000000 0.000000 0.000000 0.000000 -24.370120 0.000000 0.000000 8.424724 0.000000 
0.000000 0.000000 0.000000 0.000000 -23.916245 0.000000 0.000000 7.842671 0.000000 
0.000000 0.000000 0.000000 0.000000 -23.498566 0.000000 0.000000 8.412212 0.000000 
0.000000 0.000000 0.000000 0.000000 -22.655233 0.000000 0.000000 8.034359 0.000000 
0.000000 0.000000 0.000000 0.000000 -21.801409 0.000000 0.000000 7.647997 0.000000 
0.000000 0.000000 0.000000 0.000000 -20.609693 0.000000 0.000000 6.802174 0.000000 
0.000000 0.000000 0.000000 0.000000 -19.290046 0.000000 0.000000 5.812223 0.000000 
0.000000 0.000000 0.000000 0.000000 -18.014694 0.000000 0.000000 4.851461 0.000000 
0.000000 0.000000 0.000000 0.000000 -16.657846 0.000000 0.000000 3.892280 0.000000 
0.000000 0.000000 0.000000 0.000000 -15.255119 0.000000 0.000000 2.543986 0.000000 
0.000000 0.000000 0.000000 0.000000 -14.136062 0.000000 0.000000 2.012324 0.000000 
0.000000 0.000000 0.000000 0.000000 -13.147242 0.000000 0.000000 1.677712 0.000000 
0.000000 0.000000 0.000000 0.000000 -12.660623 0.000000 0.000000 1.990840 0.000000 
0.000000 0.000000 0.000000 0.000000 -12.660623 0.000000 0.000000 2.864413 0.000000 
0.000000 0.000000 0.000000 0.000000 -12.964509 0.000000 0.000000 4.433743 0.000000 
0.000000 0.000000 0.000000 0.000000 -13.744912 0.000000 0.000000 6.016275 0.000000 
0.000000 0.000000 0.000000 0.000000 -14.722975 0.000000 0.000000 6.883712 0.000000 
0.000000 0.000000 0.000000 0.000000 -16.001023 0.000000 0.000000 8.047941 0.000000 
0.000000 0.000000 0.000000 0.000000 -17.161919 0.000000 0.000000 8.384101 0.000000 
0.000000 0.000000 0.000000 0.000000 -17.927920 0.000000 0.000000 8.397792 0.000000 
0.000000 0.000000 0.000000 0.000000 -18.434949 0.000000 0.000000 8.238961 0.000000 
